<svg width="437" height="157" viewBox="0 0 437 157" fill="none" xmlns="http://www.w3.org/2000/svg">
<path d="M13.725 95.093H17.232V96.171H13.725C13.6597 96.171 13.6037 96.185 13.557 96.213C13.5103 96.241 13.4707 96.2783 13.438 96.325C13.41 96.3717 13.389 96.4183 13.375 96.465C13.361 96.5117 13.354 96.549 13.354 96.577V98.516C13.354 98.614 13.389 98.7073 13.459 98.796C13.5337 98.88 13.6223 98.922 13.725 98.922H16.658C16.7 98.922 16.742 98.9103 16.784 98.887C16.8307 98.859 16.8703 98.824 16.903 98.782C16.9403 98.74 16.9683 98.6957 16.987 98.649C17.0103 98.6023 17.022 98.558 17.022 98.516V98.089H15.083V97.004H18.198V98.516C18.198 98.726 18.156 98.922 18.072 99.104C17.9927 99.286 17.883 99.4447 17.743 99.58C17.603 99.7107 17.4373 99.8133 17.246 99.888C17.0593 99.9627 16.861 100 16.651 100H13.725C13.5197 100 13.3237 99.9627 13.137 99.888C12.9503 99.8087 12.7847 99.7037 12.64 99.573C12.5 99.4377 12.388 99.2813 12.304 99.104C12.22 98.922 12.178 98.726 12.178 98.516V96.577C12.178 96.367 12.22 96.171 12.304 95.989C12.388 95.807 12.5 95.6507 12.64 95.52C12.78 95.3847 12.9433 95.2797 13.13 95.205C13.3167 95.1303 13.515 95.093 13.725 95.093ZM20.445 97.487H23C22.9907 97.3937 22.951 97.312 22.881 97.242C22.8157 97.1673 22.734 97.13 22.636 97.13H19.612V96.045H22.636C22.846 96.045 23.0443 96.0847 23.231 96.164C23.4177 96.2387 23.581 96.3437 23.721 96.479C23.8657 96.6097 23.9777 96.766 24.057 96.948C24.141 97.13 24.183 97.326 24.183 97.536V98.516C24.183 98.726 24.141 98.922 24.057 99.104C23.973 99.2813 23.861 99.4377 23.721 99.573C23.581 99.7037 23.4177 99.8087 23.231 99.888C23.0443 99.9627 22.846 100 22.636 100H20.445C20.2677 100 20.0997 99.9673 19.941 99.902C19.7823 99.8367 19.6423 99.748 19.521 99.636C19.3997 99.524 19.304 99.391 19.234 99.237C19.164 99.083 19.129 98.9173 19.129 98.74C19.129 98.5627 19.164 98.397 19.234 98.243C19.304 98.089 19.3997 97.956 19.521 97.844C19.6423 97.732 19.7823 97.6457 19.941 97.585C20.0997 97.5197 20.2677 97.487 20.445 97.487ZM20.34 98.852C20.3727 98.8987 20.4077 98.922 20.445 98.922H22.636C22.7433 98.922 22.825 98.887 22.881 98.817C22.937 98.7423 22.9767 98.6583 23 98.565H20.445C20.403 98.565 20.368 98.586 20.34 98.628C20.3167 98.6747 20.305 98.712 20.305 98.74C20.305 98.768 20.3167 98.8053 20.34 98.852ZM25.1663 96.045H26.3423V98.516C26.3423 98.614 26.3773 98.7073 26.4473 98.796C26.5219 98.88 26.6106 98.922 26.7133 98.922H28.6733C28.7899 98.922 28.8833 98.8683 28.9533 98.761C28.9859 98.719 29.0069 98.6747 29.0163 98.628C29.0303 98.5813 29.0373 98.544 29.0373 98.516V96.045H30.2203V98.516C30.2203 98.726 30.1783 98.922 30.0943 99.104C30.0103 99.2813 29.8959 99.4377 29.7513 99.573C29.6113 99.7037 29.4479 99.8087 29.2613 99.888C29.0746 99.9627 28.8786 100 28.6733 100H26.7133C26.5033 100 26.3049 99.9627 26.1183 99.888C25.9316 99.8087 25.7683 99.7037 25.6283 99.573C25.4883 99.4377 25.3763 99.2813 25.2923 99.104C25.2083 98.922 25.1663 98.726 25.1663 98.516V96.045ZM31.2024 97.305C31.2024 97.1277 31.2374 96.962 31.3074 96.808C31.3774 96.654 31.4707 96.521 31.5874 96.409C31.7087 96.297 31.8487 96.2107 32.0074 96.15C32.1707 96.0847 32.3411 96.052 32.5184 96.052H35.7664V97.13H32.5184C32.4764 97.13 32.4414 97.151 32.4134 97.193C32.3901 97.2397 32.3784 97.277 32.3784 97.305V98.74C32.3784 98.768 32.3901 98.8053 32.4134 98.852C32.4461 98.8987 32.4811 98.922 32.5184 98.922H35.7664V100H32.5184C32.3411 100 32.1707 99.9673 32.0074 99.902C31.8487 99.8367 31.7087 99.748 31.5874 99.636C31.4707 99.524 31.3774 99.391 31.3074 99.237C31.2374 99.083 31.2024 98.9173 31.2024 98.74V97.305ZM37.9223 95.093V96.094C38.0437 96.066 38.1673 96.052 38.2933 96.052H40.2533C40.4633 96.052 40.6617 96.0893 40.8483 96.164C41.035 96.2387 41.1983 96.3437 41.3383 96.479C41.4783 96.6097 41.5903 96.766 41.6743 96.948C41.7583 97.13 41.8003 97.326 41.8003 97.536V100H40.6173V97.536C40.6173 97.4333 40.5823 97.34 40.5123 97.256C40.447 97.172 40.3607 97.13 40.2533 97.13H38.2933C38.228 97.13 38.172 97.144 38.1253 97.172C38.0787 97.2 38.039 97.2373 38.0063 97.284C37.9783 97.3307 37.9573 97.3773 37.9433 97.424C37.9293 97.466 37.9223 97.5033 37.9223 97.536V100H36.7463V95.093H37.9223ZM42.7825 98.516V97.536C42.7825 97.326 42.8221 97.13 42.9015 96.948C42.9855 96.766 43.0975 96.6097 43.2375 96.479C43.3821 96.3437 43.5478 96.2387 43.7345 96.164C43.9211 96.0893 44.1195 96.052 44.3295 96.052H46.5205C46.6978 96.052 46.8658 96.0847 47.0245 96.15C47.1831 96.2107 47.3231 96.297 47.4445 96.409C47.5658 96.521 47.6615 96.654 47.7315 96.808C47.8015 96.962 47.8365 97.1277 47.8365 97.305C47.8365 97.4823 47.8015 97.648 47.7315 97.802C47.6615 97.956 47.5658 98.089 47.4445 98.201C47.3231 98.313 47.1831 98.4017 47.0245 98.467C46.8658 98.5323 46.6978 98.565 46.5205 98.565H43.9655C43.9748 98.6583 44.0145 98.7423 44.0845 98.817C44.1545 98.887 44.2361 98.922 44.3295 98.922H47.3465V100H44.3295C44.1195 100 43.9211 99.9627 43.7345 99.888C43.5478 99.8087 43.3821 99.7037 43.2375 99.573C43.0975 99.4377 42.9855 99.2813 42.9015 99.104C42.8221 98.922 42.7825 98.726 42.7825 98.516ZM43.9655 97.487H46.5205C46.5578 97.487 46.5881 97.466 46.6115 97.424C46.6395 97.382 46.6535 97.3423 46.6535 97.305C46.6535 97.2677 46.6418 97.2303 46.6185 97.193C46.5951 97.151 46.5625 97.13 46.5205 97.13H44.3295C44.2315 97.13 44.1475 97.1673 44.0775 97.242C44.0121 97.312 43.9748 97.3937 43.9655 97.487Z" fill="white"/>
<path d="M231.527 95.093C231.737 95.093 231.935 95.1303 232.122 95.205C232.309 95.2797 232.472 95.3847 232.612 95.52C232.752 95.6507 232.864 95.807 232.948 95.989C233.032 96.171 233.074 96.367 233.074 96.577V98.516C233.074 98.726 233.032 98.922 232.948 99.104C232.869 99.2813 232.757 99.4377 232.612 99.573C232.472 99.7037 232.309 99.8087 232.122 99.888C231.935 99.9627 231.737 100 231.527 100H227.054V95.093H231.527ZM231.527 98.922C231.592 98.922 231.648 98.908 231.695 98.88C231.742 98.852 231.781 98.8147 231.814 98.768C231.842 98.7213 231.863 98.6747 231.877 98.628C231.891 98.5813 231.898 98.544 231.898 98.516V96.577C231.898 96.549 231.891 96.5117 231.877 96.465C231.863 96.4183 231.842 96.3717 231.814 96.325C231.781 96.2783 231.742 96.241 231.695 96.213C231.648 96.185 231.592 96.171 231.527 96.171H228.23V98.922H231.527ZM234.054 97.536C234.054 97.326 234.094 97.13 234.173 96.948C234.257 96.766 234.369 96.6097 234.509 96.479C234.654 96.3437 234.819 96.2387 235.006 96.164C235.193 96.0893 235.391 96.052 235.601 96.052H237.792V97.13H235.601C235.536 97.13 235.48 97.144 235.433 97.172C235.386 97.2 235.347 97.2373 235.314 97.284C235.286 97.3307 235.265 97.3773 235.251 97.424C235.237 97.466 235.23 97.5033 235.23 97.536V100H234.054V97.536ZM238.593 97.536C238.593 97.326 238.633 97.13 238.712 96.948C238.796 96.766 238.908 96.6097 239.048 96.479C239.193 96.3437 239.358 96.2387 239.545 96.164C239.732 96.0893 239.93 96.052 240.14 96.052H242.1C242.31 96.052 242.508 96.0893 242.695 96.164C242.882 96.2387 243.045 96.3437 243.185 96.479C243.33 96.6097 243.442 96.766 243.521 96.948C243.605 97.13 243.647 97.326 243.647 97.536V98.516C243.647 98.726 243.605 98.922 243.521 99.104C243.437 99.2813 243.323 99.4377 243.178 99.573C243.038 99.7037 242.875 99.8087 242.688 99.888C242.501 99.9627 242.305 100 242.1 100H240.14C239.93 100 239.732 99.9627 239.545 99.888C239.358 99.8087 239.195 99.7037 239.055 99.573C238.915 99.4377 238.803 99.2813 238.719 99.104C238.635 98.922 238.593 98.726 238.593 98.516V97.536ZM239.853 98.768C239.886 98.8147 239.925 98.852 239.972 98.88C240.019 98.908 240.075 98.922 240.14 98.922H242.1C242.207 98.922 242.294 98.88 242.359 98.796C242.429 98.712 242.464 98.6187 242.464 98.516V97.536C242.464 97.4333 242.429 97.34 242.359 97.256C242.294 97.172 242.207 97.13 242.1 97.13H240.14C240.075 97.13 240.019 97.144 239.972 97.172C239.925 97.2 239.886 97.2373 239.853 97.284C239.825 97.3307 239.804 97.3773 239.79 97.424C239.776 97.466 239.769 97.5033 239.769 97.536V98.516C239.769 98.544 239.776 98.5813 239.79 98.628C239.804 98.6747 239.825 98.7213 239.853 98.768ZM245.805 96.052V100H244.629V96.052H245.805ZM244.629 95.093H245.805V95.814H244.629V95.093ZM247.958 95.093V96.052H248.931V97.13H247.958V98.516C247.958 98.614 247.993 98.7073 248.063 98.796C248.138 98.88 248.227 98.922 248.329 98.922H248.931V100H248.329C248.119 100 247.921 99.9627 247.734 99.888C247.548 99.8087 247.384 99.7037 247.244 99.573C247.104 99.4377 246.992 99.2813 246.908 99.104C246.824 98.922 246.782 98.726 246.782 98.516V95.093H247.958ZM249.907 98.516V97.536C249.907 97.326 249.946 97.13 250.026 96.948C250.11 96.766 250.222 96.6097 250.362 96.479C250.506 96.3437 250.672 96.2387 250.859 96.164C251.045 96.0893 251.244 96.052 251.454 96.052H253.645C253.822 96.052 253.99 96.0847 254.149 96.15C254.307 96.2107 254.447 96.297 254.569 96.409C254.69 96.521 254.786 96.654 254.856 96.808C254.926 96.962 254.961 97.1277 254.961 97.305C254.961 97.4823 254.926 97.648 254.856 97.802C254.786 97.956 254.69 98.089 254.569 98.201C254.447 98.313 254.307 98.4017 254.149 98.467C253.99 98.5323 253.822 98.565 253.645 98.565H251.09C251.099 98.6583 251.139 98.7423 251.209 98.817C251.279 98.887 251.36 98.922 251.454 98.922H254.471V100H251.454C251.244 100 251.045 99.9627 250.859 99.888C250.672 99.8087 250.506 99.7037 250.362 99.573C250.222 99.4377 250.11 99.2813 250.026 99.104C249.946 98.922 249.907 98.726 249.907 98.516ZM251.09 97.487H253.645C253.682 97.487 253.712 97.466 253.736 97.424C253.764 97.382 253.778 97.3423 253.778 97.305C253.778 97.2677 253.766 97.2303 253.743 97.193C253.719 97.151 253.687 97.13 253.645 97.13H251.454C251.356 97.13 251.272 97.1673 251.202 97.242C251.136 97.312 251.099 97.3937 251.09 97.487Z" fill="white"/>
<path d="M353.721 56.093H359.741V57.171H357.319V61H356.143V57.171H353.721V56.093ZM361.757 57.052V61H360.581V57.052H361.757ZM360.581 56.093H361.757V56.814H360.581V56.093ZM362.734 58.536C362.734 58.326 362.774 58.13 362.853 57.948C362.937 57.766 363.049 57.6097 363.189 57.479C363.334 57.3437 363.499 57.2387 363.686 57.164C363.873 57.0893 364.071 57.052 364.281 57.052H366.472V58.13H364.281C364.216 58.13 364.16 58.144 364.113 58.172C364.066 58.2 364.027 58.2373 363.994 58.284C363.966 58.3307 363.945 58.3773 363.931 58.424C363.917 58.466 363.91 58.5033 363.91 58.536V61H362.734V58.536ZM367.348 59.516V58.536C367.348 58.326 367.388 58.13 367.467 57.948C367.551 57.766 367.663 57.6097 367.803 57.479C367.948 57.3437 368.114 57.2387 368.3 57.164C368.487 57.0893 368.685 57.052 368.895 57.052H371.086C371.264 57.052 371.432 57.0847 371.59 57.15C371.749 57.2107 371.889 57.297 372.01 57.409C372.132 57.521 372.227 57.654 372.297 57.808C372.367 57.962 372.402 58.1277 372.402 58.305C372.402 58.4823 372.367 58.648 372.297 58.802C372.227 58.956 372.132 59.089 372.01 59.201C371.889 59.313 371.749 59.4017 371.59 59.467C371.432 59.5323 371.264 59.565 371.086 59.565H368.531C368.541 59.6583 368.58 59.7423 368.65 59.817C368.72 59.887 368.802 59.922 368.895 59.922H371.912V61H368.895C368.685 61 368.487 60.9627 368.3 60.888C368.114 60.8087 367.948 60.7037 367.803 60.573C367.663 60.4377 367.551 60.2813 367.467 60.104C367.388 59.922 367.348 59.726 367.348 59.516ZM368.531 58.487H371.086C371.124 58.487 371.154 58.466 371.177 58.424C371.205 58.382 371.219 58.3423 371.219 58.305C371.219 58.2677 371.208 58.2303 371.184 58.193C371.161 58.151 371.128 58.13 371.086 58.13H368.895C368.797 58.13 368.713 58.1673 368.643 58.242C368.578 58.312 368.541 58.3937 368.531 58.487ZM373.282 58.536C373.282 58.326 373.322 58.13 373.401 57.948C373.485 57.766 373.597 57.6097 373.737 57.479C373.882 57.3437 374.047 57.2387 374.234 57.164C374.421 57.0893 374.619 57.052 374.829 57.052H377.02V58.13H374.829C374.764 58.13 374.708 58.144 374.661 58.172C374.614 58.2 374.575 58.2373 374.542 58.284C374.514 58.3307 374.493 58.3773 374.479 58.424C374.465 58.466 374.458 58.5033 374.458 58.536V61H373.282V58.536Z" fill="white"/>
<path d="M101.82 13L104.305 8.093H105.425L107.91 13H106.482L104.865 9.801L103.248 13H101.82ZM109.891 8.093V9.052H110.864V10.13H109.891V11.516C109.891 11.614 109.926 11.7073 109.996 11.796C110.071 11.88 110.159 11.922 110.262 11.922H110.864V13H110.262C110.052 13 109.854 12.9627 109.667 12.888C109.48 12.8087 109.317 12.7037 109.177 12.573C109.037 12.4377 108.925 12.2813 108.841 12.104C108.757 11.922 108.715 11.726 108.715 11.516V8.093H109.891ZM113.015 8.093V9.052H113.988V10.13H113.015V11.516C113.015 11.614 113.05 11.7073 113.12 11.796C113.195 11.88 113.283 11.922 113.386 11.922H113.988V13H113.386C113.176 13 112.978 12.9627 112.791 12.888C112.604 12.8087 112.441 12.7037 112.301 12.573C112.161 12.4377 112.049 12.2813 111.965 12.104C111.881 11.922 111.839 11.726 111.839 11.516V8.093H113.015ZM116.23 10.487H118.785C118.776 10.3937 118.736 10.312 118.666 10.242C118.601 10.1673 118.519 10.13 118.421 10.13H115.397V9.045H118.421C118.631 9.045 118.829 9.08467 119.016 9.164C119.203 9.23867 119.366 9.34367 119.506 9.479C119.651 9.60967 119.763 9.766 119.842 9.948C119.926 10.13 119.968 10.326 119.968 10.536V11.516C119.968 11.726 119.926 11.922 119.842 12.104C119.758 12.2813 119.646 12.4377 119.506 12.573C119.366 12.7037 119.203 12.8087 119.016 12.888C118.829 12.9627 118.631 13 118.421 13H116.23C116.053 13 115.885 12.9673 115.726 12.902C115.567 12.8367 115.427 12.748 115.306 12.636C115.185 12.524 115.089 12.391 115.019 12.237C114.949 12.083 114.914 11.9173 114.914 11.74C114.914 11.5627 114.949 11.397 115.019 11.243C115.089 11.089 115.185 10.956 115.306 10.844C115.427 10.732 115.567 10.6457 115.726 10.585C115.885 10.5197 116.053 10.487 116.23 10.487ZM116.125 11.852C116.158 11.8987 116.193 11.922 116.23 11.922H118.421C118.528 11.922 118.61 11.887 118.666 11.817C118.722 11.7423 118.762 11.6583 118.785 11.565H116.23C116.188 11.565 116.153 11.586 116.125 11.628C116.102 11.6747 116.09 11.712 116.09 11.74C116.09 11.768 116.102 11.8053 116.125 11.852ZM120.951 10.529C120.951 10.319 120.991 10.123 121.07 9.941C121.154 9.759 121.266 9.60267 121.406 9.472C121.551 9.33667 121.717 9.23167 121.903 9.157C122.09 9.08233 122.288 9.045 122.498 9.045H124.451C124.661 9.045 124.86 9.08467 125.046 9.164C125.233 9.23867 125.396 9.34367 125.536 9.479C125.676 9.60967 125.788 9.766 125.872 9.948C125.956 10.1253 125.998 10.319 125.998 10.529V14.428H124.822V12.951C124.706 12.979 124.582 12.993 124.451 12.993H122.498C122.288 12.993 122.09 12.9557 121.903 12.881C121.717 12.8017 121.551 12.6967 121.406 12.566C121.266 12.4307 121.154 12.2743 121.07 12.097C120.991 11.915 120.951 11.719 120.951 11.509V10.529ZM122.127 11.509C122.127 11.6117 122.162 11.705 122.232 11.789C122.302 11.873 122.391 11.915 122.498 11.915H124.451C124.517 11.915 124.573 11.901 124.619 11.873C124.666 11.845 124.706 11.8077 124.738 11.761C124.794 11.6677 124.822 11.5837 124.822 11.509V10.529C124.822 10.4263 124.785 10.3353 124.71 10.256C124.64 10.172 124.554 10.13 124.451 10.13H122.498C122.391 10.13 122.302 10.172 122.232 10.256C122.162 10.3353 122.127 10.4263 122.127 10.529V11.509ZM126.981 9.045H128.157V11.516C128.157 11.614 128.192 11.7073 128.262 11.796C128.336 11.88 128.425 11.922 128.528 11.922H130.488C130.604 11.922 130.698 11.8683 130.768 11.761C130.8 11.719 130.821 11.6747 130.831 11.628C130.845 11.5813 130.852 11.544 130.852 11.516V9.045H132.035V11.516C132.035 11.726 131.993 11.922 131.909 12.104C131.825 12.2813 131.71 12.4377 131.566 12.573C131.426 12.7037 131.262 12.8087 131.076 12.888C130.889 12.9627 130.693 13 130.488 13H128.528C128.318 13 128.119 12.9627 127.933 12.888C127.746 12.8087 127.583 12.7037 127.443 12.573C127.303 12.4377 127.191 12.2813 127.107 12.104C127.023 11.922 126.981 11.726 126.981 11.516V9.045ZM133.017 11.516V10.536C133.017 10.326 133.057 10.13 133.136 9.948C133.22 9.766 133.332 9.60967 133.472 9.479C133.617 9.34367 133.782 9.23867 133.969 9.164C134.156 9.08933 134.354 9.052 134.564 9.052H136.755C136.932 9.052 137.1 9.08467 137.259 9.15C137.418 9.21067 137.558 9.297 137.679 9.409C137.8 9.521 137.896 9.654 137.966 9.808C138.036 9.962 138.071 10.1277 138.071 10.305C138.071 10.4823 138.036 10.648 137.966 10.802C137.896 10.956 137.8 11.089 137.679 11.201C137.558 11.313 137.418 11.4017 137.259 11.467C137.1 11.5323 136.932 11.565 136.755 11.565H134.2C134.209 11.6583 134.249 11.7423 134.319 11.817C134.389 11.887 134.471 11.922 134.564 11.922H137.581V13H134.564C134.354 13 134.156 12.9627 133.969 12.888C133.782 12.8087 133.617 12.7037 133.472 12.573C133.332 12.4377 133.22 12.2813 133.136 12.104C133.057 11.922 133.017 11.726 133.017 11.516ZM134.2 10.487H136.755C136.792 10.487 136.823 10.466 136.846 10.424C136.874 10.382 136.888 10.3423 136.888 10.305C136.888 10.2677 136.876 10.2303 136.853 10.193C136.83 10.151 136.797 10.13 136.755 10.13H134.564C134.466 10.13 134.382 10.1673 134.312 10.242C134.247 10.312 134.209 10.3937 134.2 10.487ZM141.983 9.591C141.983 9.37633 142.022 9.178 142.102 8.996C142.186 8.814 142.298 8.65767 142.438 8.527C142.578 8.39167 142.741 8.28667 142.928 8.212C143.119 8.13267 143.322 8.093 143.537 8.093H147.513V9.171H143.537C143.425 9.171 143.334 9.21533 143.264 9.304C143.194 9.388 143.159 9.48367 143.159 9.591C143.159 9.69833 143.194 9.794 143.264 9.878C143.338 9.962 143.429 10.004 143.537 10.004H146.442C146.652 10.004 146.85 10.0437 147.037 10.123C147.228 10.1977 147.394 10.3027 147.534 10.438C147.678 10.5733 147.793 10.732 147.877 10.914C147.961 11.096 148.003 11.292 148.003 11.502C148.003 11.712 147.961 11.9103 147.877 12.097C147.793 12.279 147.678 12.4377 147.534 12.573C147.394 12.7037 147.228 12.8087 147.037 12.888C146.85 12.9627 146.652 13 146.442 13H142.466V11.922H146.442C146.549 11.922 146.638 11.88 146.708 11.796C146.782 11.7073 146.82 11.6093 146.82 11.502C146.82 11.3947 146.782 11.299 146.708 11.215C146.638 11.1263 146.549 11.082 146.442 11.082H143.537C143.327 11.082 143.126 11.0447 142.935 10.97C142.748 10.8907 142.585 10.7857 142.445 10.655C142.305 10.5197 142.193 10.361 142.109 10.179C142.025 9.997 141.983 9.801 141.983 9.591ZM150.43 9.045H152.383C152.593 9.045 152.791 9.08467 152.978 9.164C153.165 9.23867 153.328 9.34367 153.468 9.479C153.608 9.60967 153.72 9.766 153.804 9.948C153.888 10.1253 153.93 10.319 153.93 10.529V11.509C153.93 11.719 153.888 11.915 153.804 12.097C153.72 12.2743 153.608 12.4307 153.468 12.566C153.328 12.6967 153.165 12.8017 152.978 12.881C152.791 12.9557 152.593 12.993 152.383 12.993H150.43C150.295 12.993 150.171 12.979 150.059 12.951V14.428H148.883V10.529C148.883 10.319 148.923 10.123 149.002 9.941C149.086 9.759 149.198 9.60267 149.338 9.472C149.483 9.33667 149.648 9.23167 149.835 9.157C150.022 9.08233 150.22 9.045 150.43 9.045ZM150.059 10.529V11.509C150.059 11.6117 150.094 11.705 150.164 11.789C150.234 11.873 150.323 11.915 150.43 11.915H152.383C152.448 11.915 152.504 11.901 152.551 11.873C152.598 11.845 152.637 11.8077 152.67 11.761C152.726 11.6677 152.754 11.5837 152.754 11.509V10.529C152.754 10.4263 152.717 10.3353 152.642 10.256C152.572 10.172 152.486 10.13 152.383 10.13H150.43C150.323 10.13 150.234 10.172 150.164 10.256C150.094 10.3353 150.059 10.4263 150.059 10.529ZM154.912 10.536C154.912 10.326 154.952 10.13 155.031 9.948C155.115 9.766 155.227 9.60967 155.367 9.479C155.512 9.34367 155.678 9.23867 155.864 9.164C156.051 9.08933 156.249 9.052 156.459 9.052H158.65C158.828 9.052 158.996 9.08467 159.154 9.15C159.313 9.21067 159.453 9.297 159.574 9.409C159.696 9.521 159.791 9.654 159.861 9.808C159.931 9.962 159.966 10.1277 159.966 10.305C159.966 10.4823 159.931 10.648 159.861 10.802C159.791 10.956 159.696 11.089 159.574 11.201C159.453 11.313 159.313 11.4017 159.154 11.467C158.996 11.5323 158.828 11.565 158.65 11.565H156.095C156.105 11.6583 156.144 11.7423 156.214 11.817C156.284 11.887 156.366 11.922 156.459 11.922H159.476V13H156.459C156.249 13 156.051 12.9627 155.864 12.888C155.678 12.8087 155.512 12.7037 155.367 12.573C155.227 12.4377 155.115 12.2813 155.031 12.104C154.952 11.922 154.912 11.726 154.912 11.516V10.536ZM156.739 8.786L156.956 7.519H158.055L157.523 8.786H156.739ZM156.095 10.487H158.65C158.688 10.487 158.718 10.466 158.741 10.424C158.769 10.382 158.783 10.3423 158.783 10.305C158.783 10.2677 158.772 10.2303 158.748 10.193C158.725 10.151 158.692 10.13 158.65 10.13H156.459C156.361 10.13 156.277 10.1673 156.207 10.242C156.142 10.312 156.105 10.3937 156.095 10.487ZM160.846 10.305C160.846 10.1277 160.881 9.962 160.951 9.808C161.021 9.654 161.114 9.521 161.231 9.409C161.352 9.297 161.492 9.21067 161.651 9.15C161.814 9.08467 161.985 9.052 162.162 9.052H165.41V10.13H162.162C162.12 10.13 162.085 10.151 162.057 10.193C162.034 10.2397 162.022 10.277 162.022 10.305V11.74C162.022 11.768 162.034 11.8053 162.057 11.852C162.09 11.8987 162.125 11.922 162.162 11.922H165.41V13H162.162C161.985 13 161.814 12.9673 161.651 12.902C161.492 12.8367 161.352 12.748 161.231 12.636C161.114 12.524 161.021 12.391 160.951 12.237C160.881 12.083 160.846 11.9173 160.846 11.74V10.305ZM167.566 9.052V13H166.39V9.052H167.566ZM166.39 8.093H167.566V8.814H166.39V8.093ZM169.81 10.487H172.365C172.356 10.3937 172.316 10.312 172.246 10.242C172.181 10.1673 172.099 10.13 172.001 10.13H168.977V9.045H172.001C172.211 9.045 172.41 9.08467 172.596 9.164C172.783 9.23867 172.946 9.34367 173.086 9.479C173.231 9.60967 173.343 9.766 173.422 9.948C173.506 10.13 173.548 10.326 173.548 10.536V11.516C173.548 11.726 173.506 11.922 173.422 12.104C173.338 12.2813 173.226 12.4377 173.086 12.573C172.946 12.7037 172.783 12.8087 172.596 12.888C172.41 12.9627 172.211 13 172.001 13H169.81C169.633 13 169.465 12.9673 169.306 12.902C169.148 12.8367 169.008 12.748 168.886 12.636C168.765 12.524 168.669 12.391 168.599 12.237C168.529 12.083 168.494 11.9173 168.494 11.74C168.494 11.5627 168.529 11.397 168.599 11.243C168.669 11.089 168.765 10.956 168.886 10.844C169.008 10.732 169.148 10.6457 169.306 10.585C169.465 10.5197 169.633 10.487 169.81 10.487ZM169.705 11.852C169.738 11.8987 169.773 11.922 169.81 11.922H172.001C172.109 11.922 172.19 11.887 172.246 11.817C172.302 11.7423 172.342 11.6583 172.365 11.565H169.81C169.768 11.565 169.733 11.586 169.705 11.628C169.682 11.6747 169.67 11.712 169.67 11.74C169.67 11.768 169.682 11.8053 169.705 11.852ZM175.708 8.093V11.516C175.708 11.5533 175.715 11.5953 175.729 11.642C175.743 11.6887 175.766 11.7353 175.799 11.782C175.836 11.824 175.883 11.859 175.939 11.887C175.995 11.915 176.062 11.9243 176.142 11.915H176.184V13H176.149C175.831 13 175.568 12.9463 175.358 12.839C175.152 12.727 174.987 12.594 174.861 12.44C174.739 12.286 174.653 12.125 174.602 11.957C174.555 11.7843 174.532 11.6373 174.532 11.516V8.093H175.708ZM176.965 11.516V10.536C176.965 10.326 177.005 10.13 177.084 9.948C177.168 9.766 177.28 9.60967 177.42 9.479C177.565 9.34367 177.73 9.23867 177.917 9.164C178.104 9.08933 178.302 9.052 178.512 9.052H180.703C180.88 9.052 181.048 9.08467 181.207 9.15C181.366 9.21067 181.506 9.297 181.627 9.409C181.748 9.521 181.844 9.654 181.914 9.808C181.984 9.962 182.019 10.1277 182.019 10.305C182.019 10.4823 181.984 10.648 181.914 10.802C181.844 10.956 181.748 11.089 181.627 11.201C181.506 11.313 181.366 11.4017 181.207 11.467C181.048 11.5323 180.88 11.565 180.703 11.565H178.148C178.157 11.6583 178.197 11.7423 178.267 11.817C178.337 11.887 178.419 11.922 178.512 11.922H181.529V13H178.512C178.302 13 178.104 12.9627 177.917 12.888C177.73 12.8087 177.565 12.7037 177.42 12.573C177.28 12.4377 177.168 12.2813 177.084 12.104C177.005 11.922 176.965 11.726 176.965 11.516ZM178.148 10.487H180.703C180.74 10.487 180.771 10.466 180.794 10.424C180.822 10.382 180.836 10.3423 180.836 10.305C180.836 10.2677 180.824 10.2303 180.801 10.193C180.778 10.151 180.745 10.13 180.703 10.13H178.512C178.414 10.13 178.33 10.1673 178.26 10.242C178.195 10.312 178.157 10.3937 178.148 10.487Z" fill="white"/>
<path d="M123.458 143.093C123.668 143.093 123.866 143.13 124.053 143.205C124.239 143.28 124.403 143.385 124.543 143.52C124.683 143.651 124.795 143.807 124.879 143.989C124.963 144.171 125.005 144.367 125.005 144.577V146.516C125.005 146.726 124.963 146.922 124.879 147.104C124.799 147.281 124.687 147.438 124.543 147.573C124.403 147.704 124.239 147.809 124.053 147.888C123.866 147.963 123.668 148 123.458 148H118.985V143.093H123.458ZM123.458 146.922C123.523 146.922 123.579 146.908 123.626 146.88C123.672 146.852 123.712 146.815 123.745 146.768C123.773 146.721 123.794 146.675 123.808 146.628C123.822 146.581 123.829 146.544 123.829 146.516V144.577C123.829 144.549 123.822 144.512 123.808 144.465C123.794 144.418 123.773 144.372 123.745 144.325C123.712 144.278 123.672 144.241 123.626 144.213C123.579 144.185 123.523 144.171 123.458 144.171H120.161V146.922H123.458ZM125.985 145.536C125.985 145.326 126.024 145.13 126.104 144.948C126.188 144.766 126.3 144.61 126.44 144.479C126.584 144.344 126.75 144.239 126.937 144.164C127.123 144.089 127.322 144.052 127.532 144.052H129.723C129.9 144.052 130.068 144.085 130.227 144.15C130.385 144.211 130.525 144.297 130.647 144.409C130.768 144.521 130.864 144.654 130.934 144.808C131.004 144.962 131.039 145.128 131.039 145.305C131.039 145.482 131.004 145.648 130.934 145.802C130.864 145.956 130.768 146.089 130.647 146.201C130.525 146.313 130.385 146.402 130.227 146.467C130.068 146.532 129.9 146.565 129.723 146.565H127.168C127.177 146.658 127.217 146.742 127.287 146.817C127.357 146.887 127.438 146.922 127.532 146.922H130.549V148H127.532C127.322 148 127.123 147.963 126.937 147.888C126.75 147.809 126.584 147.704 126.44 147.573C126.3 147.438 126.188 147.281 126.104 147.104C126.024 146.922 125.985 146.726 125.985 146.516V145.536ZM127.812 143.786L128.029 142.519H129.128L128.596 143.786H127.812ZM127.168 145.487H129.723C129.76 145.487 129.79 145.466 129.814 145.424C129.842 145.382 129.856 145.342 129.856 145.305C129.856 145.268 129.844 145.23 129.821 145.193C129.797 145.151 129.765 145.13 129.723 145.13H127.532C127.434 145.13 127.35 145.167 127.28 145.242C127.214 145.312 127.177 145.394 127.168 145.487ZM131.918 145.305C131.918 145.128 131.953 144.962 132.023 144.808C132.093 144.654 132.187 144.521 132.303 144.409C132.425 144.297 132.565 144.211 132.723 144.15C132.887 144.085 133.057 144.052 133.234 144.052H136.482V145.13H133.234C133.192 145.13 133.157 145.151 133.129 145.193C133.106 145.24 133.094 145.277 133.094 145.305V145.963H135.999V147.041H133.094V149.435H131.918V145.305ZM137.257 146.516V145.536C137.257 145.326 137.297 145.13 137.376 144.948C137.46 144.766 137.572 144.61 137.712 144.479C137.857 144.344 138.022 144.239 138.209 144.164C138.396 144.089 138.594 144.052 138.804 144.052H140.995C141.172 144.052 141.34 144.085 141.499 144.15C141.658 144.211 141.798 144.297 141.919 144.409C142.04 144.521 142.136 144.654 142.206 144.808C142.276 144.962 142.311 145.128 142.311 145.305C142.311 145.482 142.276 145.648 142.206 145.802C142.136 145.956 142.04 146.089 141.919 146.201C141.798 146.313 141.658 146.402 141.499 146.467C141.34 146.532 141.172 146.565 140.995 146.565H138.44C138.449 146.658 138.489 146.742 138.559 146.817C138.629 146.887 138.711 146.922 138.804 146.922H141.821V148H138.804C138.594 148 138.396 147.963 138.209 147.888C138.022 147.809 137.857 147.704 137.712 147.573C137.572 147.438 137.46 147.281 137.376 147.104C137.297 146.922 137.257 146.726 137.257 146.516ZM138.44 145.487H140.995C141.032 145.487 141.063 145.466 141.086 145.424C141.114 145.382 141.128 145.342 141.128 145.305C141.128 145.268 141.116 145.23 141.093 145.193C141.07 145.151 141.037 145.13 140.995 145.13H138.804C138.706 145.13 138.622 145.167 138.552 145.242C138.487 145.312 138.449 145.394 138.44 145.487ZM146.698 144.052C146.908 144.052 147.106 144.089 147.293 144.164C147.479 144.239 147.643 144.344 147.783 144.479C147.923 144.61 148.035 144.766 148.119 144.948C148.203 145.13 148.245 145.326 148.245 145.536V148H147.062V145.536C147.062 145.433 147.027 145.34 146.957 145.256C146.891 145.172 146.805 145.13 146.698 145.13H144.367V148H143.191V144.052H146.698ZM149.059 145.305C149.059 145.128 149.094 144.962 149.164 144.808C149.234 144.654 149.329 144.521 149.451 144.409C149.572 144.297 149.712 144.211 149.871 144.15C150.029 144.085 150.197 144.052 150.375 144.052H153.63V145.13H150.375C150.337 145.13 150.305 145.151 150.277 145.193C150.249 145.23 150.235 145.268 150.235 145.305C150.235 145.338 150.249 145.377 150.277 145.424C150.305 145.466 150.337 145.487 150.375 145.487H152.797C152.974 145.487 153.142 145.52 153.301 145.585C153.464 145.646 153.604 145.732 153.721 145.844C153.842 145.956 153.938 146.089 154.008 146.243C154.078 146.397 154.113 146.563 154.113 146.74C154.113 146.917 154.078 147.083 154.008 147.237C153.938 147.391 153.842 147.524 153.721 147.636C153.604 147.748 153.464 147.837 153.301 147.902C153.142 147.967 152.974 148 152.797 148H149.542V146.922H152.797C152.834 146.922 152.869 146.899 152.902 146.852C152.925 146.805 152.937 146.768 152.937 146.74C152.937 146.712 152.925 146.675 152.902 146.628C152.874 146.586 152.839 146.565 152.797 146.565H150.375C150.197 146.565 150.029 146.532 149.871 146.467C149.712 146.402 149.572 146.313 149.451 146.201C149.329 146.089 149.234 145.956 149.164 145.802C149.094 145.648 149.059 145.482 149.059 145.305ZM154.976 146.516V145.536C154.976 145.326 155.016 145.13 155.095 144.948C155.179 144.766 155.291 144.61 155.431 144.479C155.576 144.344 155.741 144.239 155.928 144.164C156.115 144.089 156.313 144.052 156.523 144.052H158.714C158.891 144.052 159.059 144.085 159.218 144.15C159.377 144.211 159.517 144.297 159.638 144.409C159.759 144.521 159.855 144.654 159.925 144.808C159.995 144.962 160.03 145.128 160.03 145.305C160.03 145.482 159.995 145.648 159.925 145.802C159.855 145.956 159.759 146.089 159.638 146.201C159.517 146.313 159.377 146.402 159.218 146.467C159.059 146.532 158.891 146.565 158.714 146.565H156.159C156.168 146.658 156.208 146.742 156.278 146.817C156.348 146.887 156.43 146.922 156.523 146.922H159.54V148H156.523C156.313 148 156.115 147.963 155.928 147.888C155.741 147.809 155.576 147.704 155.431 147.573C155.291 147.438 155.179 147.281 155.095 147.104C155.016 146.922 154.976 146.726 154.976 146.516ZM156.159 145.487H158.714C158.751 145.487 158.782 145.466 158.805 145.424C158.833 145.382 158.847 145.342 158.847 145.305C158.847 145.268 158.835 145.23 158.812 145.193C158.789 145.151 158.756 145.13 158.714 145.13H156.523C156.425 145.13 156.341 145.167 156.271 145.242C156.206 145.312 156.168 145.394 156.159 145.487Z" fill="white"/>
<rect x="118.957" y="35.5" width="39" height="39" rx="2.5" fill="white"/>
<path d="M145.957 58.75L138.457 51.25L130.957 58.75" stroke="#2A1A3F" stroke-width="2" stroke-linecap="round" stroke-linejoin="round"/>
<rect x="118.957" y="35.5" width="39" height="39" rx="2.5" stroke="white"/>
<rect x="118.957" y="78.5" width="39" height="39" rx="2.5" fill="white"/>
<path d="M130.957 94.25L138.457 101.75L145.957 94.25" stroke="#2A1A3F" stroke-width="2" stroke-linecap="round" stroke-linejoin="round"/>
<rect x="118.957" y="78.5" width="39" height="39" rx="2.5" stroke="white"/>
<rect x="75.957" y="78.5" width="39" height="39" rx="2.5" fill="white"/>
<path d="M99.207 105.5L91.707 98L99.207 90.5" stroke="#2A1A3F" stroke-width="2" stroke-linecap="round" stroke-linejoin="round"/>
<rect x="75.957" y="78.5" width="39" height="39" rx="2.5" stroke="white"/>
<rect x="161.957" y="78.5" width="39" height="39" rx="2.5" fill="white"/>
<path d="M177.707 105.5L185.207 98L177.707 90.5" stroke="#2B1B40" stroke-width="2" stroke-linecap="round" stroke-linejoin="round"/>
<rect x="161.957" y="78.5" width="39" height="39" rx="2.5" stroke="white"/>
<rect x="314.957" y="78.5" width="102" height="39" rx="2.5" fill="white" stroke="white"/>
<path d="M341.08 95.576C342.44 95.576 343.512 96.44 343.544 97.8H338.664C338.856 96.408 339.848 95.576 341.08 95.576ZM345.208 100.376H343.24C342.904 101.064 342.28 101.608 341.16 101.608C339.816 101.608 338.776 100.728 338.648 99.272H345.384C345.432 98.968 345.448 98.68 345.448 98.376C345.448 95.784 343.672 94.04 341.16 94.04C338.552 94.04 336.76 95.816 336.76 98.584C336.76 101.352 338.632 103.144 341.16 103.144C343.32 103.144 344.712 101.912 345.208 100.376ZM353.819 100.536C353.723 97.352 348.747 98.344 348.747 96.568C348.747 95.976 349.259 95.576 350.235 95.576C351.227 95.576 351.819 96.104 351.883 96.872H353.707C353.611 95.112 352.299 94.04 350.299 94.04C348.219 94.04 346.907 95.176 346.907 96.584C346.907 99.816 352.027 98.824 352.027 100.552C352.027 101.16 351.467 101.608 350.411 101.608C349.403 101.608 348.715 101.016 348.651 100.296H346.763C346.843 101.896 348.331 103.144 350.443 103.144C352.523 103.144 353.819 102.024 353.819 100.536ZM357.614 95.48V94.184H355.79V107.192H357.614V101.72C358.19 102.408 359.23 103.144 360.686 103.144C363.006 103.144 364.83 101.272 364.83 98.552C364.83 95.832 363.006 94.04 360.686 94.04C359.246 94.04 358.174 94.744 357.614 95.48ZM362.974 98.552C362.974 100.456 361.662 101.56 360.286 101.56C358.926 101.56 357.614 100.488 357.614 98.584C357.614 96.696 358.926 95.624 360.286 95.624C361.662 95.624 362.974 96.648 362.974 98.552ZM366.026 98.552C366.026 101.272 367.866 103.144 370.154 103.144C371.626 103.144 372.682 102.44 373.242 101.688V103H375.082V94.184H373.242V95.464C372.698 94.744 371.674 94.04 370.186 94.04C367.866 94.04 366.026 95.832 366.026 98.552ZM373.242 98.584C373.242 100.488 371.946 101.56 370.57 101.56C369.21 101.56 367.898 100.456 367.898 98.552C367.898 96.648 369.21 95.624 370.57 95.624C371.946 95.624 373.242 96.696 373.242 98.584ZM376.869 98.584C376.869 101.352 378.661 103.144 381.189 103.144C383.349 103.144 384.757 101.944 385.253 100.216H383.285C382.949 101.128 382.277 101.608 381.189 101.608C379.717 101.608 378.741 100.52 378.741 98.584C378.741 96.664 379.717 95.576 381.189 95.576C382.277 95.576 382.981 96.12 383.285 96.968H385.253C384.757 95.112 383.349 94.04 381.189 94.04C378.661 94.04 376.869 95.832 376.869 98.584ZM390.783 95.576C392.143 95.576 393.215 96.44 393.247 97.8H388.367C388.559 96.408 389.551 95.576 390.783 95.576ZM394.911 100.376H392.943C392.607 101.064 391.983 101.608 390.863 101.608C389.519 101.608 388.479 100.728 388.351 99.272H395.087C395.135 98.968 395.151 98.68 395.151 98.376C395.151 95.784 393.375 94.04 390.863 94.04C388.255 94.04 386.463 95.816 386.463 98.584C386.463 101.352 388.335 103.144 390.863 103.144C393.023 103.144 394.415 101.912 394.911 100.376Z" fill="#2B1B40"/>
<path d="M217.811 98.3536C218.006 98.1583 218.006 97.8417 217.811 97.6464L214.629 94.4645C214.433 94.2692 214.117 94.2692 213.921 94.4645C213.726 94.6597 213.726 94.9763 213.921 95.1716L216.75 98L213.921 100.828C213.726 101.024 213.726 101.34 213.921 101.536C214.117 101.731 214.433 101.731 214.629 101.536L217.811 98.3536ZM201.457 98.5L217.457 98.5L217.457 97.5L201.457 97.5L201.457 98.5Z" fill="white"/>
<path d="M59.1035 97.6464C58.9082 97.8417 58.9082 98.1583 59.1035 98.3536L62.2855 101.536C62.4807 101.731 62.7973 101.731 62.9926 101.536C63.1878 101.34 63.1878 101.024 62.9926 100.828L60.1641 98L62.9926 95.1716C63.1878 94.9763 63.1878 94.6597 62.9926 94.4645C62.7973 94.2692 62.4807 94.2692 62.2855 94.4645L59.1035 97.6464ZM75.457 97.5H59.457V98.5H75.457V97.5Z" fill="white"/>
<path d="M138.811 21.6464C138.615 21.4512 138.299 21.4512 138.103 21.6464L134.921 24.8284C134.726 25.0237 134.726 25.3403 134.921 25.5355C135.117 25.7308 135.433 25.7308 135.629 25.5355L138.457 22.7071L141.285 25.5355C141.481 25.7308 141.797 25.7308 141.993 25.5355C142.188 25.3403 142.188 25.0237 141.993 24.8284L138.811 21.6464ZM138.957 47L138.957 22L137.957 22L137.957 47L138.957 47Z" fill="white"/>
<path d="M365.811 66.6464C365.615 66.4512 365.299 66.4512 365.103 66.6464L361.921 69.8284C361.726 70.0237 361.726 70.3403 361.921 70.5355C362.117 70.7308 362.433 70.7308 362.629 70.5355L365.457 67.7071L368.285 70.5355C368.481 70.7308 368.797 70.7308 368.993 70.5355C369.188 70.3403 369.188 70.0237 368.993 69.8284L365.811 66.6464ZM365.957 92L365.957 67L364.957 67L364.957 92L365.957 92Z" fill="white"/>
<path d="M138.103 135.354C138.299 135.549 138.615 135.549 138.811 135.354L141.993 132.172C142.188 131.976 142.188 131.66 141.993 131.464C141.797 131.269 141.481 131.269 141.285 131.464L138.457 134.293L135.629 131.464C135.433 131.269 135.117 131.269 134.921 131.464C134.726 131.66 134.726 131.976 134.921 132.172L138.103 135.354ZM137.957 110V135H138.957V110H137.957Z" fill="white"/>
</svg>
